<svg aria-hidden="true" style="position: absolute; width: 0; height: 0; overflow: hidden;" version="1.1" xmlns="http://www.w3.org/2000/svg" xmlns:xlink="http://www.w3.org/1999/xlink">
<defs>
<symbol id="Group-1" viewBox="0 0 32 32">
<path fill="#c4c4c4" style="fill: var(--color1, #c4c4c4)" opacity="0.16" d="M32 16c0 8.837-7.163 16-16 16s-16-7.163-16-16c0-8.837 7.163-16 16-16s16 7.163 16 16zM6.365 16c0 5.321 4.314 9.635 9.635 9.635s9.635-4.314 9.635-9.635c0-5.321-4.314-9.635-9.635-9.635s-9.635 4.314-9.635 9.635z"></path>
<path fill="#fff" style="fill: var(--color2, #fff)" d="M16 32c-2.631 0-5.222-0.649-7.542-1.889s-4.299-3.034-5.761-5.222-2.362-4.702-2.619-7.321c-0.258-2.619 0.134-5.26 1.141-7.691s2.598-4.576 4.632-6.245c2.034-1.669 4.448-2.811 7.029-3.324s5.248-0.382 7.766 0.382c2.518 0.764 4.809 2.137 6.669 3.997l-4.526 4.526c-1.116-1.116-2.491-1.94-4.001-2.398s-3.111-0.537-4.66-0.229-2.997 0.993-4.217 1.995c-1.22 1.002-2.175 2.289-2.779 3.747s-0.839 3.044-0.685 4.615c0.155 1.571 0.695 3.080 1.572 4.392s2.064 2.389 3.457 3.133 2.947 1.134 4.525 1.134v6.4z"></path>
</symbol>
<symbol id="Ellipse-4" viewBox="0 0 32 32">
<path fill="#c4c4c4" style="fill: var(--color1, #c4c4c4)" opacity="0.16" d="M32 16c0 8.837-7.163 16-16 16s-16-7.163-16-16c0-8.837 7.163-16 16-16s16 7.163 16 16zM6.4 16c0 5.302 4.298 9.6 9.6 9.6s9.6-4.298 9.6-9.6c0-5.302-4.298-9.6-9.6-9.6s-9.6 4.298-9.6 9.6z"></path>
</symbol>
<symbol id="Vector-3" viewBox="0 0 26 32">
<path fill="#f2f4f7" style="fill: var(--color3, #f2f4f7)" d="M21.608 17.001c0.045 4.843 4.218 6.454 4.265 6.475-0.035 0.114-0.667 2.297-2.199 4.551-1.324 1.949-2.699 3.892-4.864 3.932-2.128 0.040-2.812-1.271-5.244-1.271s-3.192 1.23-5.206 1.31c-2.090 0.080-3.681-2.108-5.017-4.050-2.729-3.973-4.814-11.226-2.014-16.123 1.391-2.431 3.877-3.971 6.575-4.011 2.052-0.039 3.989 1.391 5.244 1.391s3.608-1.72 6.083-1.467c1.036 0.043 3.944 0.421 5.811 3.174-0.15 0.094-3.47 2.040-3.434 6.089zM17.609 5.109c1.11-1.353 1.856-3.236 1.653-5.109-1.599 0.065-3.533 1.073-4.681 2.425-1.028 1.197-1.929 3.113-1.686 4.95 1.783 0.139 3.604-0.912 4.714-2.266z"></path>
</symbol>
</defs>
</svg>
